<svg width="24" height="24" viewBox="0 0 24 24" fill="none" xmlns="http://www.w3.org/2000/svg">
<g id="filter">
<path id="Combined Shape" d="M10 12.2613H10.5C10.5 12.1436 10.4584 12.0296 10.3827 11.9395L10 12.2613ZM4.41067 5.61545L4.79333 5.29363L4.41067 5.61545ZM19.646 5.61545L19.2633 5.29363L19.646 5.61545ZM14 12.3287L13.6173 12.0069C13.5416 12.097 13.5 12.211 13.5 12.3287H14ZM14 17L14.3 17.4C14.4259 17.3055 14.5 17.1574 14.5 17H14ZM10 20H9.5C9.5 20.1894 9.607 20.3625 9.77639 20.4472C9.94579 20.5319 10.1485 20.5136 10.3 20.4L10 20ZM10.3827 11.9395L4.79333 5.29363L4.02801 5.93728L9.61734 12.5832L10.3827 11.9395ZM4.79333 5.29363C4.51979 4.96838 4.75101 4.4718 5.17599 4.4718V3.4718C3.90106 3.4718 3.2074 4.96154 4.02801 5.93728L4.79333 5.29363ZM5.17599 4.4718H18.8807V3.4718H5.17599V4.4718ZM18.8807 4.4718C19.3056 4.4718 19.5369 4.96838 19.2633 5.29363L20.0286 5.93728C20.8493 4.96155 20.1556 3.4718 18.8807 3.4718V4.4718ZM19.2633 5.29363L13.6173 12.0069L14.3827 12.6505L20.0286 5.93728L19.2633 5.29363ZM13.5 12.3287V17H14.5V12.3287H13.5ZM13.7 16.6L9.7 19.6L10.3 20.4L14.3 17.4L13.7 16.6ZM10.5 20V12.2613H9.5V20H10.5Z" fill="#1F2F98"/>
</g>
</svg>
