<svg width="24" height="24" viewBox="0 0 24 24" fill="none" xmlns="http://www.w3.org/2000/svg">
<path d="M6.24007 4.79999V7.19999M6.24007 7.19999C5.17968 7.19999 4.32007 8.0596 4.32007 9.11999C4.32007 10.1804 5.17968 11.04 6.24007 11.04M6.24007 7.19999C7.30046 7.19999 8.16007 8.0596 8.16007 9.11999C8.16007 10.1804 7.30046 11.04 6.24007 11.04M6.24007 11.04V19.2M12.0001 4.79999V12.96M12.0001 12.96C10.9397 12.96 10.0801 13.8196 10.0801 14.88C10.0801 15.9404 10.9397 16.8 12.0001 16.8M12.0001 12.96C13.0605 12.96 13.9201 13.8196 13.9201 14.88C13.9201 15.9404 13.0605 16.8 12.0001 16.8M12.0001 16.8V19.2M17.7601 4.79999V7.19999M17.7601 7.19999C16.6997 7.19999 15.8401 8.0596 15.8401 9.11999C15.8401 10.1804 16.6997 11.04 17.7601 11.04M17.7601 7.19999C18.8205 7.19999 19.6801 8.0596 19.6801 9.11999C19.6801 10.1804 18.8205 11.04 17.7601 11.04M17.7601 11.04V19.2" stroke="#1F2F98" stroke-width="1.2"/>
</svg>
