<?xml version="1.0" encoding="UTF-8" standalone="no"?>
<!DOCTYPE svg PUBLIC "-//W3C//DTD SVG 1.1//EN" "http://www.w3.org/Graphics/SVG/1.1/DTD/svg11.dtd">
<svg version="1.1" xmlns="http://www.w3.org/2000/svg" xmlns:xlink="http://www.w3.org/1999/xlink" preserveAspectRatio="xMidYMid meet" viewBox="0 0 640 640" width="640" height="640"><defs><path d="M112.91 378.28C104.89 378.28 97.96 381.01 92.1 386.48C86.24 391.95 83.32 398.42 83.32 405.91C83.32 413.39 86.24 419.87 92.1 425.34C112.81 444.69 278.49 599.45 299.19 618.79C305.06 624.26 311.99 627 320 627C328.01 627 334.95 624.26 340.8 618.79C361.51 599.45 527.19 444.68 547.89 425.34C553.74 419.87 556.68 413.39 556.68 405.91C556.68 398.42 553.75 391.95 547.89 386.48C542.04 381.01 535.11 378.28 527.09 378.28C444.26 378.28 154.32 378.28 112.91 378.28Z" id="e24cVVrX50"></path></defs><g><g><g><use xlink:href="#e24cVVrX50" opacity="1" fill="#f0f0f0" fill-opacity="1"></use><g><use xlink:href="#e24cVVrX50" opacity="1" fill-opacity="0" stroke="#000000" stroke-width="1" stroke-opacity="0"></use></g></g></g></g></svg>