<?xml version="1.0" encoding="UTF-8" standalone="no"?>
<!DOCTYPE svg PUBLIC "-//W3C//DTD SVG 1.1//EN" "http://www.w3.org/Graphics/SVG/1.1/DTD/svg11.dtd">
<svg version="1.1" xmlns="http://www.w3.org/2000/svg" xmlns:xlink="http://www.w3.org/1999/xlink" preserveAspectRatio="xMidYMid meet" viewBox="0 0 640 640" width="640" height="640"><defs><path d="M522.34 285.32C529.88 285.32 536.41 282.59 541.91 277.13C547.42 271.67 550.18 265.2 550.18 257.73C550.18 250.25 547.42 243.79 541.91 238.32C522.43 219.01 366.55 64.5 347.07 45.19C341.56 39.74 335.04 37 327.5 37C319.96 37 313.44 39.74 307.93 45.19C288.44 64.5 132.57 219.01 113.08 238.32C107.57 243.79 104.82 250.25 104.82 257.73C104.82 265.2 107.57 271.67 113.08 277.13C118.6 282.59 125.12 285.32 132.66 285.32C210.59 285.32 483.37 285.32 522.34 285.32Z" id="bATjGKiA"></path></defs><g><g><g><use xlink:href="#bATjGKiA" opacity="1" fill="#f0f0f0" fill-opacity="1"></use><g><use xlink:href="#bATjGKiA" opacity="1" fill-opacity="0" stroke="#000000" stroke-width="1" stroke-opacity="0"></use></g></g></g></g></svg>