<svg width="32" height="32" viewBox="0 0 32 32" fill="none" xmlns="http://www.w3.org/2000/svg">
<path d="M22.4 23.68H27.52C27.52 19.2 26.6773 18.1386 24.96 17.28C23.68 16.64 21.12 16 21.12 14.08C21.12 12.16 22.4 11.52 22.4 8.96C22.4 6.4 21.12 5.12 19.2 5.12C17.4884 5.12 16.2854 6.13723 16.0444 8.1717M5.76001 26.24C5.76001 21.76 7.04001 20.48 8.32001 19.84C9.60001 19.2 12.16 18.56 12.16 16.64C12.16 14.72 10.88 14.08 10.88 11.52C10.88 8.96 12.16 7.68 14.08 7.68C16 7.68 17.28 8.96 17.28 11.52C17.28 14.08 16 14.72 16 16.64C16 18.56 18.56 19.2 19.84 19.84C21.5573 20.6986 22.4 21.76 22.4 26.24H5.76001Z" stroke="#1F2F98" stroke-width="1.2"/>
</svg>
